<mxfile host="app.diagrams.net" agent="Mozilla/5.0 (Macintosh; Intel Mac OS X 10_15_7) AppleWebKit/537.36 (KHTML, like Gecko) Chrome/141.0.0.0 Safari/537.36" version="28.2.7">
  <diagram name="Side-1" id="l-Whsr1jBXI9UlGYqbKQ">
    <mxGraphModel dx="1829" dy="1785" grid="1" gridSize="10" guides="1" tooltips="1" connect="1" arrows="1" fold="1" page="1" pageScale="1" pageWidth="827" pageHeight="1169" math="0" shadow="0">
      <root>
        <mxCell id="0" />
        <mxCell id="1" parent="0" />
        <mxCell id="POveywKqXQOCWZLjj1YH-1" value="Item" style="swimlane;fontStyle=1;align=center;verticalAlign=top;childLayout=stackLayout;horizontal=1;startSize=40;horizontalStack=0;resizeParent=1;resizeParentMax=0;resizeLast=0;collapsible=0;marginBottom=0;" vertex="1" parent="1">
          <mxGeometry x="356" y="1060" width="199" height="168" as="geometry" />
        </mxCell>
        <mxCell id="POveywKqXQOCWZLjj1YH-2" value="+string Name" style="text;strokeColor=none;fillColor=none;align=left;verticalAlign=top;spacingLeft=4;spacingRight=4;overflow=hidden;rotatable=0;points=[[0,0.5],[1,0.5]];portConstraint=eastwest;" vertex="1" parent="POveywKqXQOCWZLjj1YH-1">
          <mxGeometry y="40" width="199" height="40" as="geometry" />
        </mxCell>
        <mxCell id="POveywKqXQOCWZLjj1YH-3" value="+decimal PricePerUnit" style="text;strokeColor=none;fillColor=none;align=left;verticalAlign=top;spacingLeft=4;spacingRight=4;overflow=hidden;rotatable=0;points=[[0,0.5],[1,0.5]];portConstraint=eastwest;" vertex="1" parent="POveywKqXQOCWZLjj1YH-1">
          <mxGeometry y="80" width="199" height="40" as="geometry" />
        </mxCell>
        <mxCell id="POveywKqXQOCWZLjj1YH-4" style="line;strokeWidth=1;fillColor=none;align=left;verticalAlign=middle;spacingTop=-1;spacingLeft=3;spacingRight=3;rotatable=0;labelPosition=right;points=[];portConstraint=eastwest;strokeColor=inherit;" vertex="1" parent="POveywKqXQOCWZLjj1YH-1">
          <mxGeometry y="120" width="199" height="8" as="geometry" />
        </mxCell>
        <mxCell id="POveywKqXQOCWZLjj1YH-5" value="+string ToString()" style="text;strokeColor=none;fillColor=none;align=left;verticalAlign=top;spacingLeft=4;spacingRight=4;overflow=hidden;rotatable=0;points=[[0,0.5],[1,0.5]];portConstraint=eastwest;" vertex="1" parent="POveywKqXQOCWZLjj1YH-1">
          <mxGeometry y="128" width="199" height="40" as="geometry" />
        </mxCell>
        <mxCell id="POveywKqXQOCWZLjj1YH-6" value="BulkItem" style="swimlane;fontStyle=1;align=center;verticalAlign=top;childLayout=stackLayout;horizontal=1;startSize=44.8;horizontalStack=0;resizeParent=1;resizeParentMax=0;resizeLast=0;collapsible=0;marginBottom=0;" vertex="1" parent="1">
          <mxGeometry x="209" y="1278" width="236" height="111.8" as="geometry" />
        </mxCell>
        <mxCell id="POveywKqXQOCWZLjj1YH-7" value="+string MeasurementUnit" style="text;strokeColor=none;fillColor=none;align=left;verticalAlign=top;spacingLeft=4;spacingRight=4;overflow=hidden;rotatable=0;points=[[0,0.5],[1,0.5]];portConstraint=eastwest;" vertex="1" parent="POveywKqXQOCWZLjj1YH-6">
          <mxGeometry y="44.8" width="236" height="45" as="geometry" />
        </mxCell>
        <mxCell id="POveywKqXQOCWZLjj1YH-8" style="line;strokeWidth=1;fillColor=none;align=left;verticalAlign=middle;spacingTop=-1;spacingLeft=3;spacingRight=3;rotatable=0;labelPosition=right;points=[];portConstraint=eastwest;strokeColor=inherit;" vertex="1" parent="POveywKqXQOCWZLjj1YH-6">
          <mxGeometry y="89.8" width="236" height="22" as="geometry" />
        </mxCell>
        <mxCell id="POveywKqXQOCWZLjj1YH-9" value="UnitItem" style="swimlane;fontStyle=1;align=center;verticalAlign=top;childLayout=stackLayout;horizontal=1;startSize=44.8;horizontalStack=0;resizeParent=1;resizeParentMax=0;resizeLast=0;collapsible=0;marginBottom=0;" vertex="1" parent="1">
          <mxGeometry x="495" y="1278" width="176" height="111.8" as="geometry" />
        </mxCell>
        <mxCell id="POveywKqXQOCWZLjj1YH-10" value="+decimal Weight" style="text;strokeColor=none;fillColor=none;align=left;verticalAlign=top;spacingLeft=4;spacingRight=4;overflow=hidden;rotatable=0;points=[[0,0.5],[1,0.5]];portConstraint=eastwest;" vertex="1" parent="POveywKqXQOCWZLjj1YH-9">
          <mxGeometry y="44.8" width="176" height="45" as="geometry" />
        </mxCell>
        <mxCell id="POveywKqXQOCWZLjj1YH-11" style="line;strokeWidth=1;fillColor=none;align=left;verticalAlign=middle;spacingTop=-1;spacingLeft=3;spacingRight=3;rotatable=0;labelPosition=right;points=[];portConstraint=eastwest;strokeColor=inherit;" vertex="1" parent="POveywKqXQOCWZLjj1YH-9">
          <mxGeometry y="89.8" width="176" height="22" as="geometry" />
        </mxCell>
        <mxCell id="POveywKqXQOCWZLjj1YH-12" value="Inventory" style="swimlane;fontStyle=1;align=center;verticalAlign=top;childLayout=stackLayout;horizontal=1;startSize=33.142857142857146;horizontalStack=0;resizeParent=1;resizeParentMax=0;resizeLast=0;collapsible=0;marginBottom=0;" vertex="1" parent="1">
          <mxGeometry x="20" y="770" width="274" height="239.14285714285714" as="geometry" />
        </mxCell>
        <mxCell id="POveywKqXQOCWZLjj1YH-13" value="-Dictionary stock" style="text;strokeColor=none;fillColor=none;align=left;verticalAlign=top;spacingLeft=4;spacingRight=4;overflow=hidden;rotatable=0;points=[[0,0.5],[1,0.5]];portConstraint=eastwest;" vertex="1" parent="POveywKqXQOCWZLjj1YH-12">
          <mxGeometry y="33.142857142857146" width="274" height="33" as="geometry" />
        </mxCell>
        <mxCell id="POveywKqXQOCWZLjj1YH-14" style="line;strokeWidth=1;fillColor=none;align=left;verticalAlign=middle;spacingTop=-1;spacingLeft=3;spacingRight=3;rotatable=0;labelPosition=right;points=[];portConstraint=eastwest;strokeColor=inherit;" vertex="1" parent="POveywKqXQOCWZLjj1YH-12">
          <mxGeometry y="66.14285714285714" width="274" height="8" as="geometry" />
        </mxCell>
        <mxCell id="POveywKqXQOCWZLjj1YH-15" value="+void AddItem(Item, int)" style="text;strokeColor=none;fillColor=none;align=left;verticalAlign=top;spacingLeft=4;spacingRight=4;overflow=hidden;rotatable=0;points=[[0,0.5],[1,0.5]];portConstraint=eastwest;" vertex="1" parent="POveywKqXQOCWZLjj1YH-12">
          <mxGeometry y="74.14285714285714" width="274" height="33" as="geometry" />
        </mxCell>
        <mxCell id="POveywKqXQOCWZLjj1YH-16" value="+bool CanFulfill(IEnumerable)" style="text;strokeColor=none;fillColor=none;align=left;verticalAlign=top;spacingLeft=4;spacingRight=4;overflow=hidden;rotatable=0;points=[[0,0.5],[1,0.5]];portConstraint=eastwest;" vertex="1" parent="POveywKqXQOCWZLjj1YH-12">
          <mxGeometry y="107.14285714285714" width="274" height="33" as="geometry" />
        </mxCell>
        <mxCell id="POveywKqXQOCWZLjj1YH-17" value="+void Consume(IEnumerable)" style="text;strokeColor=none;fillColor=none;align=left;verticalAlign=top;spacingLeft=4;spacingRight=4;overflow=hidden;rotatable=0;points=[[0,0.5],[1,0.5]];portConstraint=eastwest;" vertex="1" parent="POveywKqXQOCWZLjj1YH-12">
          <mxGeometry y="140.14285714285714" width="274" height="33" as="geometry" />
        </mxCell>
        <mxCell id="POveywKqXQOCWZLjj1YH-18" value="+int GetQuantity(Item)" style="text;strokeColor=none;fillColor=none;align=left;verticalAlign=top;spacingLeft=4;spacingRight=4;overflow=hidden;rotatable=0;points=[[0,0.5],[1,0.5]];portConstraint=eastwest;" vertex="1" parent="POveywKqXQOCWZLjj1YH-12">
          <mxGeometry y="173.14285714285714" width="274" height="33" as="geometry" />
        </mxCell>
        <mxCell id="POveywKqXQOCWZLjj1YH-19" value="+List LowStockItems()" style="text;strokeColor=none;fillColor=none;align=left;verticalAlign=top;spacingLeft=4;spacingRight=4;overflow=hidden;rotatable=0;points=[[0,0.5],[1,0.5]];portConstraint=eastwest;" vertex="1" parent="POveywKqXQOCWZLjj1YH-12">
          <mxGeometry y="206.14285714285714" width="274" height="33" as="geometry" />
        </mxCell>
        <mxCell id="POveywKqXQOCWZLjj1YH-20" value="OrderLine" style="swimlane;fontStyle=1;align=center;verticalAlign=top;childLayout=stackLayout;horizontal=1;startSize=38.857142857142854;horizontalStack=0;resizeParent=1;resizeParentMax=0;resizeLast=0;collapsible=0;marginBottom=0;" vertex="1" parent="1">
          <mxGeometry x="500" y="818" width="193" height="135.85714285714286" as="geometry" />
        </mxCell>
        <mxCell id="POveywKqXQOCWZLjj1YH-21" value="+Item Item" style="text;strokeColor=none;fillColor=none;align=left;verticalAlign=top;spacingLeft=4;spacingRight=4;overflow=hidden;rotatable=0;points=[[0,0.5],[1,0.5]];portConstraint=eastwest;" vertex="1" parent="POveywKqXQOCWZLjj1YH-20">
          <mxGeometry y="38.857142857142854" width="193" height="39" as="geometry" />
        </mxCell>
        <mxCell id="POveywKqXQOCWZLjj1YH-22" value="+decimal Quantity" style="text;strokeColor=none;fillColor=none;align=left;verticalAlign=top;spacingLeft=4;spacingRight=4;overflow=hidden;rotatable=0;points=[[0,0.5],[1,0.5]];portConstraint=eastwest;" vertex="1" parent="POveywKqXQOCWZLjj1YH-20">
          <mxGeometry y="77.85714285714286" width="193" height="39" as="geometry" />
        </mxCell>
        <mxCell id="POveywKqXQOCWZLjj1YH-23" style="line;strokeWidth=1;fillColor=none;align=left;verticalAlign=middle;spacingTop=-1;spacingLeft=3;spacingRight=3;rotatable=0;labelPosition=right;points=[];portConstraint=eastwest;strokeColor=inherit;" vertex="1" parent="POveywKqXQOCWZLjj1YH-20">
          <mxGeometry y="116.85714285714286" width="193" height="19" as="geometry" />
        </mxCell>
        <mxCell id="POveywKqXQOCWZLjj1YH-24" value="Order" style="swimlane;fontStyle=1;align=center;verticalAlign=top;childLayout=stackLayout;horizontal=1;startSize=36.8;horizontalStack=0;resizeParent=1;resizeParentMax=0;resizeLast=0;collapsible=0;marginBottom=0;" vertex="1" parent="1">
          <mxGeometry x="453" y="528" width="289" height="192.8" as="geometry" />
        </mxCell>
        <mxCell id="POveywKqXQOCWZLjj1YH-25" value="+DateTime Time" style="text;strokeColor=none;fillColor=none;align=left;verticalAlign=top;spacingLeft=4;spacingRight=4;overflow=hidden;rotatable=0;points=[[0,0.5],[1,0.5]];portConstraint=eastwest;" vertex="1" parent="POveywKqXQOCWZLjj1YH-24">
          <mxGeometry y="36.8" width="289" height="37" as="geometry" />
        </mxCell>
        <mxCell id="POveywKqXQOCWZLjj1YH-26" value="+ObservableCollection OrderLines" style="text;strokeColor=none;fillColor=none;align=left;verticalAlign=top;spacingLeft=4;spacingRight=4;overflow=hidden;rotatable=0;points=[[0,0.5],[1,0.5]];portConstraint=eastwest;" vertex="1" parent="POveywKqXQOCWZLjj1YH-24">
          <mxGeometry y="73.8" width="289" height="37" as="geometry" />
        </mxCell>
        <mxCell id="POveywKqXQOCWZLjj1YH-27" value="+string CustomerName" style="text;strokeColor=none;fillColor=none;align=left;verticalAlign=top;spacingLeft=4;spacingRight=4;overflow=hidden;rotatable=0;points=[[0,0.5],[1,0.5]];portConstraint=eastwest;" vertex="1" parent="POveywKqXQOCWZLjj1YH-24">
          <mxGeometry y="110.8" width="289" height="37" as="geometry" />
        </mxCell>
        <mxCell id="POveywKqXQOCWZLjj1YH-28" style="line;strokeWidth=1;fillColor=none;align=left;verticalAlign=middle;spacingTop=-1;spacingLeft=3;spacingRight=3;rotatable=0;labelPosition=right;points=[];portConstraint=eastwest;strokeColor=inherit;" vertex="1" parent="POveywKqXQOCWZLjj1YH-24">
          <mxGeometry y="147.8" width="289" height="8" as="geometry" />
        </mxCell>
        <mxCell id="POveywKqXQOCWZLjj1YH-29" value="+decimal TotalPrice()" style="text;strokeColor=none;fillColor=none;align=left;verticalAlign=top;spacingLeft=4;spacingRight=4;overflow=hidden;rotatable=0;points=[[0,0.5],[1,0.5]];portConstraint=eastwest;" vertex="1" parent="POveywKqXQOCWZLjj1YH-24">
          <mxGeometry y="155.8" width="289" height="37" as="geometry" />
        </mxCell>
        <mxCell id="POveywKqXQOCWZLjj1YH-30" value="OrderBook" style="swimlane;fontStyle=1;align=center;verticalAlign=top;childLayout=stackLayout;horizontal=1;startSize=34.666666666666664;horizontalStack=0;resizeParent=1;resizeParentMax=0;resizeLast=0;collapsible=0;marginBottom=0;" vertex="1" parent="1">
          <mxGeometry x="229" y="262" width="347" height="217.66666666666666" as="geometry" />
        </mxCell>
        <mxCell id="POveywKqXQOCWZLjj1YH-31" value="+ObservableCollection QueuedOrders" style="text;strokeColor=none;fillColor=none;align=left;verticalAlign=top;spacingLeft=4;spacingRight=4;overflow=hidden;rotatable=0;points=[[0,0.5],[1,0.5]];portConstraint=eastwest;" vertex="1" parent="POveywKqXQOCWZLjj1YH-30">
          <mxGeometry y="34.666666666666664" width="347" height="35" as="geometry" />
        </mxCell>
        <mxCell id="POveywKqXQOCWZLjj1YH-32" value="+ObservableCollection ProcessedOrders" style="text;strokeColor=none;fillColor=none;align=left;verticalAlign=top;spacingLeft=4;spacingRight=4;overflow=hidden;rotatable=0;points=[[0,0.5],[1,0.5]];portConstraint=eastwest;" vertex="1" parent="POveywKqXQOCWZLjj1YH-30">
          <mxGeometry y="69.66666666666666" width="347" height="35" as="geometry" />
        </mxCell>
        <mxCell id="POveywKqXQOCWZLjj1YH-33" value="+decimal TotalRevenue" style="text;strokeColor=none;fillColor=none;align=left;verticalAlign=top;spacingLeft=4;spacingRight=4;overflow=hidden;rotatable=0;points=[[0,0.5],[1,0.5]];portConstraint=eastwest;" vertex="1" parent="POveywKqXQOCWZLjj1YH-30">
          <mxGeometry y="104.66666666666666" width="347" height="35" as="geometry" />
        </mxCell>
        <mxCell id="POveywKqXQOCWZLjj1YH-34" style="line;strokeWidth=1;fillColor=none;align=left;verticalAlign=middle;spacingTop=-1;spacingLeft=3;spacingRight=3;rotatable=0;labelPosition=right;points=[];portConstraint=eastwest;strokeColor=inherit;" vertex="1" parent="POveywKqXQOCWZLjj1YH-30">
          <mxGeometry y="139.66666666666666" width="347" height="8" as="geometry" />
        </mxCell>
        <mxCell id="POveywKqXQOCWZLjj1YH-35" value="+void QueueOrder(Order)" style="text;strokeColor=none;fillColor=none;align=left;verticalAlign=top;spacingLeft=4;spacingRight=4;overflow=hidden;rotatable=0;points=[[0,0.5],[1,0.5]];portConstraint=eastwest;" vertex="1" parent="POveywKqXQOCWZLjj1YH-30">
          <mxGeometry y="147.66666666666666" width="347" height="35" as="geometry" />
        </mxCell>
        <mxCell id="POveywKqXQOCWZLjj1YH-36" value="+decimal ProcessNextOrder()" style="text;strokeColor=none;fillColor=none;align=left;verticalAlign=top;spacingLeft=4;spacingRight=4;overflow=hidden;rotatable=0;points=[[0,0.5],[1,0.5]];portConstraint=eastwest;" vertex="1" parent="POveywKqXQOCWZLjj1YH-30">
          <mxGeometry y="182.66666666666666" width="347" height="35" as="geometry" />
        </mxCell>
        <mxCell id="POveywKqXQOCWZLjj1YH-37" value="Customer" style="swimlane;fontStyle=1;align=center;verticalAlign=top;childLayout=stackLayout;horizontal=1;startSize=40;horizontalStack=0;resizeParent=1;resizeParentMax=0;resizeLast=0;collapsible=0;marginBottom=0;" vertex="1" parent="1">
          <mxGeometry x="626" y="286" width="330" height="168" as="geometry" />
        </mxCell>
        <mxCell id="POveywKqXQOCWZLjj1YH-38" value="+string Name" style="text;strokeColor=none;fillColor=none;align=left;verticalAlign=top;spacingLeft=4;spacingRight=4;overflow=hidden;rotatable=0;points=[[0,0.5],[1,0.5]];portConstraint=eastwest;" vertex="1" parent="POveywKqXQOCWZLjj1YH-37">
          <mxGeometry y="40" width="330" height="40" as="geometry" />
        </mxCell>
        <mxCell id="POveywKqXQOCWZLjj1YH-39" value="+List Orders" style="text;strokeColor=none;fillColor=none;align=left;verticalAlign=top;spacingLeft=4;spacingRight=4;overflow=hidden;rotatable=0;points=[[0,0.5],[1,0.5]];portConstraint=eastwest;" vertex="1" parent="POveywKqXQOCWZLjj1YH-37">
          <mxGeometry y="80" width="330" height="40" as="geometry" />
        </mxCell>
        <mxCell id="POveywKqXQOCWZLjj1YH-40" style="line;strokeWidth=1;fillColor=none;align=left;verticalAlign=middle;spacingTop=-1;spacingLeft=3;spacingRight=3;rotatable=0;labelPosition=right;points=[];portConstraint=eastwest;strokeColor=inherit;" vertex="1" parent="POveywKqXQOCWZLjj1YH-37">
          <mxGeometry y="120" width="330" height="8" as="geometry" />
        </mxCell>
        <mxCell id="POveywKqXQOCWZLjj1YH-41" value="+void CreateOrder(OrderBook, Order)" style="text;strokeColor=none;fillColor=none;align=left;verticalAlign=top;spacingLeft=4;spacingRight=4;overflow=hidden;rotatable=0;points=[[0,0.5],[1,0.5]];portConstraint=eastwest;" vertex="1" parent="POveywKqXQOCWZLjj1YH-37">
          <mxGeometry y="128" width="330" height="40" as="geometry" />
        </mxCell>
        <mxCell id="POveywKqXQOCWZLjj1YH-42" value="MainWindowViewModel" style="swimlane;fontStyle=1;align=center;verticalAlign=top;childLayout=stackLayout;horizontal=1;startSize=36.8;horizontalStack=0;resizeParent=1;resizeParentMax=0;resizeLast=0;collapsible=0;marginBottom=0;" vertex="1" parent="1">
          <mxGeometry x="115" y="20" width="293" height="192.8" as="geometry" />
        </mxCell>
        <mxCell id="POveywKqXQOCWZLjj1YH-43" value="+Inventory Inventory" style="text;strokeColor=none;fillColor=none;align=left;verticalAlign=top;spacingLeft=4;spacingRight=4;overflow=hidden;rotatable=0;points=[[0,0.5],[1,0.5]];portConstraint=eastwest;" vertex="1" parent="POveywKqXQOCWZLjj1YH-42">
          <mxGeometry y="36.8" width="293" height="37" as="geometry" />
        </mxCell>
        <mxCell id="POveywKqXQOCWZLjj1YH-44" value="+OrderBook OrderBook" style="text;strokeColor=none;fillColor=none;align=left;verticalAlign=top;spacingLeft=4;spacingRight=4;overflow=hidden;rotatable=0;points=[[0,0.5],[1,0.5]];portConstraint=eastwest;" vertex="1" parent="POveywKqXQOCWZLjj1YH-42">
          <mxGeometry y="73.8" width="293" height="37" as="geometry" />
        </mxCell>
        <mxCell id="POveywKqXQOCWZLjj1YH-45" value="+decimal TotalRevenue" style="text;strokeColor=none;fillColor=none;align=left;verticalAlign=top;spacingLeft=4;spacingRight=4;overflow=hidden;rotatable=0;points=[[0,0.5],[1,0.5]];portConstraint=eastwest;" vertex="1" parent="POveywKqXQOCWZLjj1YH-42">
          <mxGeometry y="110.8" width="293" height="37" as="geometry" />
        </mxCell>
        <mxCell id="POveywKqXQOCWZLjj1YH-46" style="line;strokeWidth=1;fillColor=none;align=left;verticalAlign=middle;spacingTop=-1;spacingLeft=3;spacingRight=3;rotatable=0;labelPosition=right;points=[];portConstraint=eastwest;strokeColor=inherit;" vertex="1" parent="POveywKqXQOCWZLjj1YH-42">
          <mxGeometry y="147.8" width="293" height="8" as="geometry" />
        </mxCell>
        <mxCell id="POveywKqXQOCWZLjj1YH-47" value="+void ProcessNextOrder()" style="text;strokeColor=none;fillColor=none;align=left;verticalAlign=top;spacingLeft=4;spacingRight=4;overflow=hidden;rotatable=0;points=[[0,0.5],[1,0.5]];portConstraint=eastwest;" vertex="1" parent="POveywKqXQOCWZLjj1YH-42">
          <mxGeometry y="155.8" width="293" height="37" as="geometry" />
        </mxCell>
        <mxCell id="POveywKqXQOCWZLjj1YH-48" value="" style="curved=1;startArrow=block;startSize=16;startFill=0;endArrow=none;exitX=0;exitY=1;entryX=0.5;entryY=0;rounded=0;" edge="1" parent="1" source="POveywKqXQOCWZLjj1YH-1" target="POveywKqXQOCWZLjj1YH-6">
          <mxGeometry relative="1" as="geometry">
            <Array as="points">
              <mxPoint x="327" y="1253" />
            </Array>
          </mxGeometry>
        </mxCell>
        <mxCell id="POveywKqXQOCWZLjj1YH-49" value="" style="curved=1;startArrow=block;startSize=16;startFill=0;endArrow=none;exitX=0.99;exitY=1;entryX=0.5;entryY=0;rounded=0;" edge="1" parent="1" source="POveywKqXQOCWZLjj1YH-1" target="POveywKqXQOCWZLjj1YH-9">
          <mxGeometry relative="1" as="geometry">
            <Array as="points">
              <mxPoint x="583" y="1253" />
            </Array>
          </mxGeometry>
        </mxCell>
        <mxCell id="POveywKqXQOCWZLjj1YH-50" value="" style="curved=1;startArrow=none;endArrow=open;endSize=12;exitX=0.5;exitY=1;entryX=0;entryY=0.28;rounded=0;" edge="1" parent="1" source="POveywKqXQOCWZLjj1YH-12" target="POveywKqXQOCWZLjj1YH-1">
          <mxGeometry relative="1" as="geometry">
            <Array as="points">
              <mxPoint x="157" y="1035" />
            </Array>
          </mxGeometry>
        </mxCell>
        <mxCell id="POveywKqXQOCWZLjj1YH-51" value="1" style="edgeLabel;resizable=0;labelBackgroundColor=none;fontSize=12;align=left;verticalAlign=top;" vertex="1" parent="POveywKqXQOCWZLjj1YH-50">
          <mxGeometry x="-1" relative="1" as="geometry" />
        </mxCell>
        <mxCell id="POveywKqXQOCWZLjj1YH-52" value="*" style="edgeLabel;resizable=0;labelBackgroundColor=none;fontSize=12;align=right;verticalAlign=bottom;" vertex="1" parent="POveywKqXQOCWZLjj1YH-50">
          <mxGeometry x="1" relative="1" as="geometry" />
        </mxCell>
        <mxCell id="POveywKqXQOCWZLjj1YH-53" value="" style="curved=1;startArrow=none;endArrow=open;endSize=12;exitX=0.5;exitY=1;entryX=0.5;entryY=0;rounded=0;" edge="1" parent="1" source="POveywKqXQOCWZLjj1YH-24" target="POveywKqXQOCWZLjj1YH-20">
          <mxGeometry relative="1" as="geometry">
            <Array as="points" />
          </mxGeometry>
        </mxCell>
        <mxCell id="POveywKqXQOCWZLjj1YH-54" value="1" style="edgeLabel;resizable=0;labelBackgroundColor=none;fontSize=12;align=right;verticalAlign=top;" vertex="1" parent="POveywKqXQOCWZLjj1YH-53">
          <mxGeometry x="-1" relative="1" as="geometry" />
        </mxCell>
        <mxCell id="POveywKqXQOCWZLjj1YH-55" value="*" style="edgeLabel;resizable=0;labelBackgroundColor=none;fontSize=12;align=left;verticalAlign=bottom;" vertex="1" parent="POveywKqXQOCWZLjj1YH-53">
          <mxGeometry x="1" relative="1" as="geometry" />
        </mxCell>
        <mxCell id="POveywKqXQOCWZLjj1YH-56" value="" style="curved=1;startArrow=none;endArrow=open;endSize=12;exitX=0.5;exitY=1;entryX=1;entryY=0.04;rounded=0;" edge="1" parent="1" source="POveywKqXQOCWZLjj1YH-20" target="POveywKqXQOCWZLjj1YH-1">
          <mxGeometry relative="1" as="geometry">
            <Array as="points">
              <mxPoint x="597" y="1035" />
            </Array>
          </mxGeometry>
        </mxCell>
        <mxCell id="POveywKqXQOCWZLjj1YH-57" value="*" style="edgeLabel;resizable=0;labelBackgroundColor=none;fontSize=12;align=right;verticalAlign=top;" vertex="1" parent="POveywKqXQOCWZLjj1YH-56">
          <mxGeometry x="-1" relative="1" as="geometry" />
        </mxCell>
        <mxCell id="POveywKqXQOCWZLjj1YH-58" value="1" style="edgeLabel;resizable=0;labelBackgroundColor=none;fontSize=12;align=left;verticalAlign=bottom;" vertex="1" parent="POveywKqXQOCWZLjj1YH-56">
          <mxGeometry x="1" relative="1" as="geometry" />
        </mxCell>
        <mxCell id="POveywKqXQOCWZLjj1YH-59" value="" style="curved=1;startArrow=none;endArrow=open;endSize=12;exitX=0.5;exitY=1;entryX=0;entryY=0.03;rounded=0;" edge="1" parent="1" source="POveywKqXQOCWZLjj1YH-30" target="POveywKqXQOCWZLjj1YH-24">
          <mxGeometry relative="1" as="geometry">
            <Array as="points">
              <mxPoint x="403" y="503" />
            </Array>
          </mxGeometry>
        </mxCell>
        <mxCell id="POveywKqXQOCWZLjj1YH-60" value="1" style="edgeLabel;resizable=0;labelBackgroundColor=none;fontSize=12;align=right;verticalAlign=top;" vertex="1" parent="POveywKqXQOCWZLjj1YH-59">
          <mxGeometry x="-1" relative="1" as="geometry" />
        </mxCell>
        <mxCell id="POveywKqXQOCWZLjj1YH-61" value="*" style="edgeLabel;resizable=0;labelBackgroundColor=none;fontSize=12;align=left;verticalAlign=bottom;" vertex="1" parent="POveywKqXQOCWZLjj1YH-59">
          <mxGeometry x="1" relative="1" as="geometry" />
        </mxCell>
        <mxCell id="POveywKqXQOCWZLjj1YH-62" value="" style="curved=1;startArrow=none;endArrow=open;endSize=12;exitX=0.5;exitY=1;entryX=1;entryY=0.03;rounded=0;" edge="1" parent="1" source="POveywKqXQOCWZLjj1YH-37" target="POveywKqXQOCWZLjj1YH-24">
          <mxGeometry relative="1" as="geometry">
            <Array as="points">
              <mxPoint x="791" y="503" />
            </Array>
          </mxGeometry>
        </mxCell>
        <mxCell id="POveywKqXQOCWZLjj1YH-63" value="1" style="edgeLabel;resizable=0;labelBackgroundColor=none;fontSize=12;align=right;verticalAlign=top;" vertex="1" parent="POveywKqXQOCWZLjj1YH-62">
          <mxGeometry x="-1" relative="1" as="geometry" />
        </mxCell>
        <mxCell id="POveywKqXQOCWZLjj1YH-64" value="*" style="edgeLabel;resizable=0;labelBackgroundColor=none;fontSize=12;align=left;verticalAlign=bottom;" vertex="1" parent="POveywKqXQOCWZLjj1YH-62">
          <mxGeometry x="1" relative="1" as="geometry" />
        </mxCell>
        <mxCell id="POveywKqXQOCWZLjj1YH-65" value="" style="curved=1;startArrow=none;endArrow=open;endSize=12;exitX=0.88;exitY=1;entryX=0.5;entryY=0;rounded=0;" edge="1" parent="1" source="POveywKqXQOCWZLjj1YH-42" target="POveywKqXQOCWZLjj1YH-30">
          <mxGeometry relative="1" as="geometry">
            <Array as="points">
              <mxPoint x="403" y="237" />
            </Array>
          </mxGeometry>
        </mxCell>
        <mxCell id="POveywKqXQOCWZLjj1YH-66" value="1" style="edgeLabel;resizable=0;labelBackgroundColor=none;fontSize=12;align=right;verticalAlign=top;" vertex="1" parent="POveywKqXQOCWZLjj1YH-65">
          <mxGeometry x="-1" relative="1" as="geometry" />
        </mxCell>
        <mxCell id="POveywKqXQOCWZLjj1YH-67" value="1" style="edgeLabel;resizable=0;labelBackgroundColor=none;fontSize=12;align=left;verticalAlign=bottom;" vertex="1" parent="POveywKqXQOCWZLjj1YH-65">
          <mxGeometry x="1" relative="1" as="geometry" />
        </mxCell>
        <mxCell id="POveywKqXQOCWZLjj1YH-68" value="" style="curved=1;startArrow=none;endArrow=open;endSize=12;exitX=0.22;exitY=1;entryX=0.5;entryY=0;rounded=0;" edge="1" parent="1" source="POveywKqXQOCWZLjj1YH-42" target="POveywKqXQOCWZLjj1YH-12">
          <mxGeometry relative="1" as="geometry">
            <Array as="points">
              <mxPoint x="157" y="237" />
            </Array>
          </mxGeometry>
        </mxCell>
        <mxCell id="POveywKqXQOCWZLjj1YH-69" value="1" style="edgeLabel;resizable=0;labelBackgroundColor=none;fontSize=12;align=right;verticalAlign=top;" vertex="1" parent="POveywKqXQOCWZLjj1YH-68">
          <mxGeometry x="-1" relative="1" as="geometry" />
        </mxCell>
        <mxCell id="POveywKqXQOCWZLjj1YH-70" value="1" style="edgeLabel;resizable=0;labelBackgroundColor=none;fontSize=12;align=left;verticalAlign=bottom;" vertex="1" parent="POveywKqXQOCWZLjj1YH-68">
          <mxGeometry x="1" relative="1" as="geometry" />
        </mxCell>
      </root>
    </mxGraphModel>
  </diagram>
</mxfile>
